<svg width="431" height="312" viewBox="0 0 431 312" fill="none" xmlns="http://www.w3.org/2000/svg">
<path d="M0 243.494L150.533 171.132L429.416 218.669L272.544 311.102L0 243.494Z" fill="url(#paint0_linear)"/>
<path d="M145.411 166.201L132.046 15.3519C132.046 13.3494 132.447 12.2815 134.051 10.6796C135.12 9.6116 137.392 8.67714 139.397 8.67714L347.89 0C351.231 0 352.567 0.667472 353.904 2.00242C356.464 4.55941 356.354 9.5671 356.577 12.0145L372.615 147.511L426.743 203.579C428.079 204.914 429.416 206.249 430.084 207.584C430.58 208.574 431.42 209.586 430.752 212.256L429.416 218.931L170.873 238.168C169.537 238.39 167.41 238.702 165.806 238.168C164.202 237.634 164.14 239.081 163.695 237.746L145.411 178.883V166.201Z" fill="#E8E8E8"/>
<path d="M376.284 193.815L385.37 193.25C386.11 193.199 386.457 192.774 386.158 192.308L382.41 186.21C382.13 185.726 381.293 185.387 380.571 185.42L371.485 185.985C370.744 186.036 370.397 186.461 370.697 186.927L374.444 193.025C374.725 193.509 375.566 193.874 376.284 193.815Z" fill="#D6D6D6"/>
<path d="M362.243 194.703L371.33 194.139C372.07 194.087 372.417 193.662 372.118 193.196L368.37 187.098C368.09 186.614 367.253 186.275 366.531 186.308L357.444 186.873C356.704 186.924 356.357 187.349 356.656 187.815L360.404 193.913C360.685 194.397 361.503 194.754 362.243 194.703Z" fill="#D6D6D6"/>
<path d="M348.178 195.581L357.264 195.017C358.005 194.966 358.352 194.541 358.053 194.075L354.305 187.977C354.024 187.493 353.187 187.154 352.465 187.187L343.379 187.751C342.638 187.803 342.291 188.228 342.591 188.694L346.339 194.792C346.619 195.276 347.456 195.614 348.178 195.581Z" fill="#D6D6D6"/>
<path d="M338.887 187.018L347.973 186.454C348.713 186.403 349.06 185.977 348.761 185.512L345.619 180.397C345.339 179.914 344.502 179.575 343.78 179.608L334.694 180.172C333.953 180.223 333.606 180.649 333.905 181.114L337.047 186.229C337.328 186.712 338.146 187.069 338.887 187.018Z" fill="#D6D6D6"/>
<path d="M324.846 187.906L333.932 187.342C334.673 187.291 335.02 186.865 334.721 186.4L331.579 181.285C331.298 180.802 330.461 180.463 329.74 180.496L320.653 181.06C319.913 181.111 319.566 181.537 319.865 182.003L323.007 187.117C323.287 187.601 324.106 187.957 324.846 187.906Z" fill="#D6D6D6"/>
<path d="M310.783 188.784L319.869 188.219C320.609 188.168 320.957 187.743 320.657 187.277L317.515 182.163C317.235 181.679 316.398 181.341 315.676 181.374L306.59 181.938C305.849 181.989 305.502 182.415 305.801 182.88L308.943 187.994C309.224 188.478 310.042 188.835 310.783 188.784Z" fill="#D6D6D6"/>
<path d="M296.713 189.663L305.799 189.098C306.54 189.047 306.887 188.622 306.588 188.156L303.446 183.042C303.166 182.558 302.328 182.22 301.607 182.253L292.52 182.817C291.78 182.868 291.433 183.293 291.732 183.759L294.874 188.873C295.154 189.357 295.992 189.696 296.713 189.663Z" fill="#D6D6D6"/>
<path d="M287.53 183.134L278.432 183.745C277.691 183.799 277.348 184.226 277.653 184.689L280.858 189.777C281.145 190.258 281.987 190.592 282.71 190.555L291.808 189.945C292.549 189.89 292.892 189.463 292.587 189L289.382 183.912C289.095 183.431 288.253 183.098 287.53 183.134Z" fill="#D6D6D6"/>
<path d="M268.608 191.429L277.713 190.846C278.453 190.795 278.801 190.37 278.501 189.904L275.359 184.79C275.079 184.306 274.242 183.968 273.52 184.001L264.434 184.565C263.693 184.616 263.346 185.041 263.645 185.507L266.787 190.621C267.049 191.123 267.886 191.462 268.608 191.429Z" fill="#D6D6D6"/>
<path d="M254.559 192.288L263.645 191.724C264.386 191.673 264.733 191.247 264.434 190.782L261.292 185.668C261.011 185.184 260.174 184.845 259.452 184.878L250.366 185.442C249.625 185.494 249.278 185.919 249.577 186.385L252.719 191.499C253 191.983 253.818 192.339 254.559 192.288Z" fill="#D6D6D6"/>
<path d="M240.518 193.178L249.605 192.613C250.345 192.562 250.692 192.137 250.393 191.671L247.251 186.557C246.971 186.073 246.134 185.735 245.412 185.767L236.325 186.332C235.585 186.383 235.238 186.808 235.537 187.274L238.679 192.388C238.959 192.872 239.778 193.229 240.518 193.178Z" fill="#D6D6D6"/>
<path d="M226.446 194.053L235.533 193.489C236.273 193.437 236.62 193.012 236.321 192.546L233.179 187.432C232.899 186.948 232.062 186.61 231.34 186.643L222.253 187.207C221.513 187.258 221.166 187.684 221.465 188.149L224.607 193.263C224.888 193.747 225.706 194.104 226.446 194.053Z" fill="#D6D6D6"/>
<path d="M212.384 194.934L221.471 194.37C222.211 194.319 222.558 193.893 222.259 193.428L219.117 188.313C218.837 187.83 217.999 187.491 217.278 187.524L208.191 188.088C207.451 188.139 207.103 188.565 207.403 189.03L210.545 194.145C210.825 194.629 211.666 194.994 212.384 194.934Z" fill="#D6D6D6"/>
<path d="M327.141 179.707L336.227 179.143C336.968 179.092 337.315 178.666 337.015 178.201L333.874 173.086C333.593 172.603 332.756 172.264 332.034 172.297L322.948 172.861C322.207 172.913 321.86 173.338 322.16 173.804L325.301 178.918C325.559 179.393 326.4 179.758 327.141 179.707Z" fill="#D6D6D6"/>
<path d="M341.378 178.818L350.464 178.254C351.204 178.203 351.552 177.777 351.252 177.312L348.11 172.197C347.83 171.714 346.993 171.375 346.271 171.408L337.185 171.972C336.444 172.023 336.097 172.449 336.396 172.914L339.538 178.029C339.819 178.513 340.678 178.86 341.378 178.818Z" fill="#D6D6D6"/>
<path d="M355.677 177.923L375.289 176.702C376.03 176.651 376.377 176.226 376.078 175.76L372.936 170.646C372.655 170.162 371.818 169.823 371.096 169.856L351.484 171.077C350.743 171.128 350.396 171.554 350.695 172.019L353.837 177.134C354.118 177.618 354.955 177.956 355.677 177.923Z" fill="#D6D6D6"/>
<path d="M354.633 169.946L370.539 168.954C371.28 168.903 371.627 168.477 371.328 168.011L368.186 162.897C367.905 162.413 367.068 162.075 366.346 162.108L350.44 163.1C349.7 163.151 349.353 163.576 349.652 164.042L352.794 169.156C353.074 169.64 353.912 169.978 354.633 169.946Z" fill="#D6D6D6"/>
<path d="M313.08 180.591L322.167 180.027C322.907 179.975 323.254 179.55 322.955 179.084L319.813 173.97C319.533 173.486 318.696 173.148 317.974 173.181L308.887 173.745C308.147 173.796 307.8 174.222 308.099 174.687L311.241 179.802C311.522 180.285 312.34 180.642 313.08 180.591Z" fill="#D6D6D6"/>
<path d="M299.013 181.467L308.1 180.903C308.84 180.852 309.187 180.427 308.888 179.961L305.746 174.847C305.466 174.363 304.629 174.024 303.907 174.057L294.82 174.622C294.08 174.673 293.733 175.098 294.032 175.564L297.174 180.678C297.454 181.162 298.273 181.519 299.013 181.467Z" fill="#D6D6D6"/>
<path d="M284.965 182.354L294.051 181.79C294.792 181.739 295.139 181.313 294.84 180.848L291.698 175.733C291.417 175.25 290.58 174.911 289.859 174.944L280.772 175.508C280.032 175.559 279.685 175.985 279.984 176.45L283.126 181.565C283.384 182.04 284.243 182.387 284.965 182.354Z" fill="#D6D6D6"/>
<path d="M270.9 183.23L279.986 182.666C280.727 182.614 281.074 182.189 280.774 181.723L277.632 176.609C277.352 176.125 276.515 175.787 275.793 175.82L266.707 176.384C265.966 176.435 265.619 176.861 265.918 177.326L269.06 182.44C269.341 182.924 270.178 183.263 270.9 183.23Z" fill="#D6D6D6"/>
<path d="M256.832 184.11L265.918 183.546C266.659 183.495 267.006 183.07 266.707 182.604L263.565 177.49C263.284 177.006 262.447 176.668 261.725 176.7L252.639 177.265C251.898 177.316 251.551 177.741 251.851 178.207L254.993 183.321C255.273 183.805 256.11 184.143 256.832 184.11Z" fill="#D6D6D6"/>
<path d="M242.813 184.979L251.899 184.415C252.64 184.363 252.987 183.938 252.687 183.472L249.545 178.358C249.265 177.874 248.428 177.536 247.706 177.569L238.62 178.133C237.879 178.184 237.532 178.61 237.831 179.075L240.973 184.189C241.231 184.665 242.072 185.03 242.813 184.979Z" fill="#D6D6D6"/>
<path d="M228.743 185.858L237.83 185.294C238.57 185.242 238.917 184.817 238.618 184.351L235.476 179.237C235.196 178.753 234.359 178.415 233.637 178.448L224.55 179.012C223.81 179.063 223.463 179.489 223.762 179.954L226.904 185.069C227.185 185.552 228.003 185.909 228.743 185.858Z" fill="#D6D6D6"/>
<path d="M214.677 186.736L223.764 186.172C224.504 186.121 224.851 185.695 224.552 185.23L221.41 180.115C221.13 179.632 220.293 179.293 219.571 179.326L210.484 179.89C209.744 179.941 209.397 180.367 209.696 180.832L212.838 185.947C213.118 186.431 213.937 186.787 214.677 186.736Z" fill="#D6D6D6"/>
<path d="M200.643 187.626L209.729 187.062C210.47 187.011 210.817 186.585 210.517 186.12L207.375 181.005C207.095 180.521 206.258 180.183 205.536 180.216L196.45 180.78C195.709 180.831 195.362 181.257 195.661 181.722L198.803 186.837C199.061 187.312 199.902 187.677 200.643 187.626Z" fill="#D6D6D6"/>
<path d="M175.646 189.188L195.492 187.954C196.232 187.902 196.579 187.477 196.28 187.011L193.138 181.897C192.858 181.413 192.02 181.075 191.299 181.108L171.453 182.342C170.712 182.393 170.365 182.819 170.665 183.284L173.807 188.399C174.087 188.883 174.924 189.221 175.646 189.188Z" fill="#D6D6D6"/>
<path d="M166.18 173.68L182.954 172.634C183.695 172.583 184.042 172.157 183.743 171.692L180.601 166.577C180.32 166.094 179.483 165.755 178.761 165.788L161.987 166.834C161.247 166.885 160.9 167.31 161.199 167.776L164.341 172.89C164.621 173.374 165.44 173.731 166.18 173.68Z" fill="#D6D6D6"/>
<path d="M297.39 173.523L306.476 172.959C307.217 172.908 307.564 172.483 307.265 172.017L304.123 166.903C303.842 166.419 303.005 166.08 302.283 166.113L293.197 166.677C292.456 166.729 292.109 167.154 292.409 167.62L295.551 172.734C295.831 173.218 296.668 173.556 297.39 173.523Z" fill="#D6D6D6"/>
<path d="M311.798 172.621L320.884 172.057C321.625 172.006 321.972 171.58 321.672 171.115L318.53 166C318.25 165.516 317.413 165.178 316.691 165.211L307.605 165.775C306.864 165.826 306.517 166.252 306.816 166.717L309.958 171.832C310.239 172.315 311.076 172.654 311.798 172.621Z" fill="#D6D6D6"/>
<path d="M326.201 171.718L335.287 171.154C336.028 171.103 336.375 170.677 336.076 170.212L332.934 165.097C332.653 164.614 331.816 164.275 331.094 164.308L322.008 164.872C321.267 164.923 320.92 165.349 321.219 165.814L324.362 170.929C324.642 171.413 325.502 171.76 326.201 171.718Z" fill="#D6D6D6"/>
<path d="M340.628 170.821L349.714 170.257C350.455 170.206 350.802 169.78 350.503 169.315L347.361 164.2C347.08 163.717 346.243 163.378 345.521 163.411L336.435 163.975C335.694 164.026 335.347 164.452 335.647 164.918L338.789 170.032C339.069 170.516 339.906 170.854 340.628 170.821Z" fill="#D6D6D6"/>
<path d="M283.369 174.394L292.455 173.83C293.196 173.779 293.543 173.353 293.243 172.888L290.102 167.773C289.821 167.289 288.984 166.951 288.262 166.984L279.176 167.548C278.435 167.599 278.088 168.025 278.387 168.49L281.529 173.605C281.787 174.08 282.628 174.445 283.369 174.394Z" fill="#D6D6D6"/>
<path d="M269.308 175.274L278.394 174.71C279.135 174.659 279.482 174.233 279.182 173.768L276.04 168.653C275.76 168.17 274.923 167.831 274.201 167.864L265.115 168.428C264.374 168.479 264.027 168.905 264.326 169.37L267.468 174.485C267.749 174.969 268.567 175.325 269.308 175.274Z" fill="#D6D6D6"/>
<path d="M255.235 176.15L264.322 175.586C265.062 175.535 265.409 175.109 265.11 174.644L261.968 169.529C261.688 169.046 260.851 168.707 260.129 168.74L251.043 169.304C250.302 169.355 249.955 169.781 250.254 170.246L253.396 175.361C253.676 175.845 254.495 176.201 255.235 176.15Z" fill="#D6D6D6"/>
<path d="M241.201 177.039L250.287 176.475C251.028 176.424 251.375 175.998 251.076 175.533L247.934 170.418C247.653 169.935 246.816 169.596 246.095 169.629L237.008 170.193C236.268 170.244 235.921 170.67 236.22 171.136L239.362 176.25C239.62 176.725 240.461 177.09 241.201 177.039Z" fill="#D6D6D6"/>
<path d="M227.135 177.918L236.222 177.354C236.962 177.303 237.309 176.877 237.01 176.411L233.868 171.297C233.587 170.813 232.75 170.475 232.029 170.508L222.942 171.072C222.202 171.123 221.854 171.549 222.154 172.014L225.296 177.129C225.576 177.612 226.395 177.969 227.135 177.918Z" fill="#D6D6D6"/>
<path d="M213.067 178.796L222.153 178.232C222.894 178.18 223.241 177.755 222.942 177.289L219.8 172.175C219.52 171.691 218.682 171.353 217.961 171.386L208.874 171.95C208.134 172.001 207.787 172.427 208.086 172.892L211.228 178.007C211.508 178.49 212.346 178.829 213.067 178.796Z" fill="#D6D6D6"/>
<path d="M199.026 179.685L208.112 179.121C208.853 179.07 209.2 178.644 208.901 178.179L205.759 173.064C205.478 172.58 204.641 172.242 203.92 172.275L194.833 172.839C194.093 172.89 193.746 173.316 194.045 173.781L197.187 178.896C197.445 179.371 198.304 179.718 199.026 179.685Z" fill="#D6D6D6"/>
<path d="M184.959 180.562L194.046 179.997C194.786 179.946 195.133 179.521 194.834 179.055L191.692 173.941C191.412 173.457 190.575 173.119 189.853 173.151L180.766 173.716C180.026 173.767 179.679 174.192 179.978 174.658L183.12 179.772C183.4 180.256 184.238 180.595 184.959 180.562Z" fill="#D6D6D6"/>
<path d="M170.911 181.424L179.997 180.859C180.738 180.808 181.085 180.383 180.786 179.917L177.644 174.803C177.363 174.319 176.526 173.981 175.805 174.013L166.718 174.578C165.978 174.629 165.631 175.054 165.93 175.52L169.072 180.634C169.352 181.118 170.171 181.475 170.911 181.424Z" fill="#D6D6D6"/>
<path d="M313.756 164.449L322.842 163.885C323.583 163.834 323.93 163.408 323.631 162.943L320.489 157.829C320.208 157.345 319.371 157.006 318.649 157.039L309.563 157.604C308.823 157.655 308.476 158.08 308.775 158.546L311.917 163.66C312.197 164.144 313.034 164.482 313.756 164.449Z" fill="#D6D6D6"/>
<path d="M327.743 163.567L336.829 163.003C337.57 162.952 337.917 162.526 337.617 162.061L334.475 156.946C334.195 156.463 333.358 156.124 332.636 156.157L323.55 156.721C322.809 156.772 322.462 157.198 322.761 157.664L325.903 162.778C326.184 163.262 327.002 163.618 327.743 163.567Z" fill="#D6D6D6"/>
<path d="M341.717 162.705L350.803 162.14C351.544 162.089 351.891 161.664 351.592 161.198L348.45 156.084C348.169 155.6 347.332 155.261 346.61 155.294L337.524 155.859C336.783 155.91 336.436 156.335 336.736 156.801L339.878 161.915C340.158 162.399 340.995 162.737 341.717 162.705Z" fill="#D6D6D6"/>
<path d="M355.697 161.82L364.783 161.256C365.524 161.205 365.871 160.779 365.572 160.314L362.43 155.199C362.149 154.715 361.312 154.377 360.59 154.41L351.504 154.974C350.764 155.025 350.416 155.451 350.716 155.916L353.858 161.031C354.138 161.514 354.998 161.861 355.697 161.82Z" fill="#D6D6D6"/>
<path d="M350.739 153.666L359.825 153.102C360.566 153.051 360.913 152.625 360.613 152.16L359.589 150.463C359.308 149.98 358.471 149.641 357.749 149.674L348.663 150.238C347.922 150.289 347.575 150.715 347.875 151.18L348.899 152.877C349.18 153.36 349.998 153.717 350.739 153.666Z" fill="#D6D6D6"/>
<path d="M332.476 154.821L341.562 154.257C342.303 154.206 342.65 153.78 342.351 153.315L341.326 151.618C341.045 151.134 340.208 150.796 339.487 150.829L330.4 151.393C329.66 151.444 329.313 151.87 329.612 152.335L330.637 154.032C330.917 154.515 331.754 154.854 332.476 154.821Z" fill="#D6D6D6"/>
<path d="M318.557 155.676L327.643 155.111C328.384 155.06 328.731 154.635 328.432 154.169L327.407 152.473C327.127 151.989 326.289 151.651 325.568 151.684L316.481 152.248C315.741 152.299 315.394 152.725 315.693 153.19L316.718 154.886C316.998 155.37 317.816 155.727 318.557 155.676Z" fill="#D6D6D6"/>
<path d="M304.615 156.552L313.702 155.988C314.442 155.937 314.789 155.511 314.49 155.046L313.465 153.35C313.185 152.866 312.348 152.527 311.626 152.56L302.54 153.125C301.799 153.176 301.452 153.601 301.751 154.067L302.776 155.763C303.056 156.247 303.875 156.604 304.615 156.552Z" fill="#D6D6D6"/>
<path d="M290.679 157.43L299.765 156.866C300.506 156.815 300.853 156.389 300.553 155.923L299.529 154.227C299.248 153.743 298.411 153.405 297.689 153.438L288.603 154.002C287.863 154.053 287.516 154.479 287.815 154.944L288.84 156.641C289.12 157.124 289.957 157.463 290.679 157.43Z" fill="#D6D6D6"/>
<path d="M212.937 162.282L222.023 161.718C222.764 161.667 223.111 161.241 222.812 160.775L221.787 159.079C221.506 158.595 220.669 158.257 219.947 158.29L210.861 158.854C210.12 158.905 209.773 159.331 210.073 159.796L211.098 161.493C211.378 161.976 212.196 162.333 212.937 162.282Z" fill="#D6D6D6"/>
<path d="M199.002 163.158L208.088 162.594C208.829 162.543 209.176 162.117 208.876 161.652L207.852 159.956C207.571 159.472 206.734 159.133 206.012 159.166L196.926 159.731C196.185 159.782 195.838 160.207 196.138 160.673L197.162 162.369C197.443 162.853 198.261 163.21 199.002 163.158Z" fill="#D6D6D6"/>
<path d="M185.086 164.043L194.173 163.479C194.913 163.428 195.26 163.002 194.961 162.537L193.936 160.841C193.656 160.357 192.819 160.018 192.097 160.051L183.011 160.615C182.27 160.667 181.923 161.092 182.222 161.558L183.247 163.254C183.505 163.729 184.365 164.076 185.086 164.043Z" fill="#D6D6D6"/>
<path d="M171.163 164.899L180.249 164.335C180.99 164.284 181.337 163.858 181.037 163.393L180.013 161.697C179.732 161.213 178.895 160.874 178.173 160.907L169.087 161.472C168.346 161.523 167.999 161.948 168.299 162.414L169.323 164.11C169.604 164.594 170.422 164.95 171.163 164.899Z" fill="#D6D6D6"/>
<path d="M299.687 165.329L308.773 164.765C309.513 164.714 309.861 164.289 309.561 163.823L306.419 158.709C306.139 158.225 305.302 157.886 304.58 157.919L295.494 158.484C294.753 158.535 294.406 158.96 294.705 159.426L297.847 164.54C298.128 165.024 298.965 165.362 299.687 165.329Z" fill="#D6D6D6"/>
<path d="M285.627 166.208L294.713 165.644C295.454 165.593 295.801 165.167 295.502 164.701L292.36 159.587C292.079 159.103 291.242 158.765 290.52 158.798L281.434 159.362C280.693 159.413 280.346 159.839 280.645 160.304L283.788 165.419C284.068 165.902 284.905 166.241 285.627 166.208Z" fill="#D6D6D6"/>
<path d="M271.6 167.074L280.687 166.51C281.427 166.459 281.774 166.033 281.475 165.568L278.333 160.454C278.053 159.97 277.216 159.631 276.494 159.664L267.408 160.229C266.667 160.28 266.32 160.705 266.619 161.171L269.761 166.285C270.023 166.787 270.86 167.126 271.6 167.074Z" fill="#D6D6D6"/>
<path d="M257.537 167.957L266.623 167.393C267.364 167.342 267.711 166.916 267.412 166.451L264.27 161.336C263.989 160.852 263.152 160.514 262.431 160.547L253.344 161.111C252.604 161.162 252.257 161.588 252.556 162.053L255.698 167.168C255.978 167.651 256.797 168.008 257.537 167.957Z" fill="#D6D6D6"/>
<path d="M243.472 168.834L252.58 168.278C253.321 168.227 253.668 167.801 253.369 167.336L250.227 162.222C249.946 161.738 249.109 161.399 248.387 161.432L239.301 161.996C238.56 162.048 238.213 162.473 238.513 162.939L241.655 168.053C241.913 168.528 242.753 168.893 243.472 168.834Z" fill="#D6D6D6"/>
<path d="M229.43 169.722L238.516 169.158C239.257 169.107 239.604 168.681 239.305 168.215L236.163 163.101C235.882 162.617 235.045 162.279 234.323 162.312L225.237 162.876C224.496 162.927 224.149 163.353 224.449 163.818L227.591 168.933C227.871 169.416 228.689 169.773 229.43 169.722Z" fill="#D6D6D6"/>
<path d="M215.363 170.602L224.45 170.037C225.19 169.986 225.537 169.561 225.238 169.095L222.096 163.981C221.816 163.497 220.978 163.159 220.257 163.191L211.17 163.756C210.43 163.807 210.083 164.232 210.382 164.698L213.524 169.812C213.804 170.296 214.623 170.653 215.363 170.602Z" fill="#D6D6D6"/>
<path d="M201.304 171.481L210.39 170.917C211.13 170.866 211.477 170.44 211.178 169.975L208.036 164.86C207.756 164.377 206.919 164.038 206.197 164.071L197.111 164.635C196.37 164.686 196.023 165.112 196.322 165.577L199.464 170.692C199.745 171.176 200.604 171.522 201.304 171.481Z" fill="#D6D6D6"/>
<path d="M187.252 172.365L196.338 171.801C197.079 171.749 197.426 171.324 197.126 170.858L193.984 165.744C193.704 165.26 192.867 164.922 192.145 164.955L183.059 165.519C182.318 165.57 181.971 165.995 182.27 166.461L185.412 171.575C185.693 172.059 186.53 172.398 187.252 172.365Z" fill="#D6D6D6"/>
<path d="M353.212 186.132L380.005 184.467C380.745 184.416 381.092 183.99 380.793 183.524L377.651 178.41C377.371 177.926 376.533 177.588 375.812 177.621L349.019 179.286C348.278 179.337 347.931 179.762 348.231 180.228L351.373 185.342C351.653 185.826 352.49 186.164 353.212 186.132Z" fill="#D6D6D6"/>
<path d="M180.544 196.917L207.337 195.252C208.078 195.201 208.425 194.775 208.125 194.31L204.983 189.195C204.703 188.712 203.866 188.373 203.144 188.406L176.351 190.071C175.611 190.122 175.264 190.548 175.563 191.013L178.705 196.128C178.985 196.611 179.804 196.968 180.544 196.917Z" fill="#D6D6D6"/>
<path d="M226.583 203.186L235.67 202.622C236.41 202.571 236.757 202.145 236.458 201.68L232.71 195.581C232.429 195.098 231.592 194.759 230.871 194.792L221.784 195.356C221.044 195.407 220.697 195.833 220.996 196.298L224.744 202.397C225.024 202.881 225.884 203.228 226.583 203.186Z" fill="#D6D6D6"/>
<path d="M328.669 196.798L343.24 195.888C343.981 195.837 344.328 195.411 344.028 194.946L340.28 188.847C340 188.363 339.163 188.025 338.441 188.058L323.87 188.968C323.129 189.019 322.782 189.445 323.082 189.91L326.829 196.009C327.11 196.493 327.928 196.85 328.669 196.798Z" fill="#D6D6D6"/>
<path d="M240.142 202.343L254.713 201.432C255.454 201.381 255.801 200.955 255.502 200.49L251.754 194.391C251.473 193.908 250.636 193.569 249.914 193.602L235.343 194.512C234.603 194.564 234.256 194.989 234.555 195.455L238.303 201.553C238.583 202.037 239.42 202.376 240.142 202.343Z" fill="#D6D6D6"/>
<path d="M308.393 198.057L322.946 197.165C323.686 197.114 324.034 196.688 323.734 196.223L319.986 190.124C319.706 189.64 318.869 189.302 318.147 189.335L303.576 190.245C302.835 190.296 302.488 190.722 302.787 191.187L306.535 197.286C306.834 197.752 307.653 198.108 308.393 198.057Z" fill="#D6D6D6"/>
<path d="M318.04 189.357L254.755 193.299C253.951 193.352 253.536 193.752 253.832 194.191L257.658 200.395C257.935 200.852 258.791 201.172 259.573 201.111L322.857 197.169L318.04 189.357Z" fill="#D6D6D6"/>
<path d="M191.812 201.305L181.688 201.936C181.094 201.966 180.8 202.31 181.047 202.706L182.588 205.201C182.835 205.597 183.514 205.876 184.108 205.846L194.232 205.215C194.826 205.185 195.12 204.841 194.873 204.445L193.332 201.95C193.085 201.554 192.406 201.275 191.812 201.305Z" fill="#D6D6D6"/>
<path d="M205.984 200.416L195.86 201.047C195.266 201.077 194.972 201.421 195.218 201.817L196.76 204.312C197.006 204.708 197.686 204.987 198.28 204.957L208.404 204.327C208.998 204.296 209.292 203.952 209.045 203.557L207.504 201.061C207.257 200.666 206.578 200.386 205.984 200.416Z" fill="#D6D6D6"/>
<path d="M220.051 199.539L209.928 200.169C209.334 200.2 209.04 200.544 209.286 200.939L210.827 203.435C211.074 203.83 211.754 204.11 212.348 204.079L222.471 203.449C223.065 203.419 223.36 203.074 223.113 202.679L221.572 200.183C221.325 199.788 220.623 199.5 220.051 199.539Z" fill="#D6D6D6"/>
<path d="M203.301 196.022L193.178 196.653C192.584 196.683 192.29 197.028 192.537 197.423L194.078 199.918C194.325 200.314 195.004 200.593 195.598 200.563L205.722 199.933C206.315 199.902 206.61 199.558 206.363 199.163L204.822 196.667C204.575 196.272 203.873 195.984 203.301 196.022Z" fill="#D6D6D6"/>
<path d="M166.627 226.766L429.513 210.085L431 210.829L429.513 219.381L166.627 238.59V226.766Z" fill="#D7D7D7"/>
<mask id="mask0" mask-type="alpha" maskUnits="userSpaceOnUse" x="147" y="10" width="212" height="137">
<path d="M157.224 137.463L147.823 29.7432C147.33 24.093 151.629 19.1641 157.294 18.8859L335.64 10.1257C340.89 9.86783 345.444 13.7182 346.062 18.9379L358.373 122.919C359.045 128.595 354.832 133.678 349.13 134.072L167.874 146.57C162.435 146.945 157.697 142.895 157.224 137.463Z" fill="#ADAEB4"/>
</mask>
<g mask="url(#mask0)">
<path d="M156.685 137.086L147.284 29.3658C146.791 23.7155 151.091 18.7867 156.756 18.5084L335.102 9.74825C340.351 9.49039 344.905 13.3407 345.523 18.5604L357.834 122.542C358.506 128.218 354.293 133.301 348.592 133.694L167.335 146.193C161.896 146.568 157.159 142.517 156.685 137.086Z" fill="#EFEFEF"/>
<circle cx="162.153" cy="26.9375" r="3.69731" fill="#E3A789"/>
<circle cx="175.886" cy="25.8813" r="3.69731" fill="#DCC874"/>
<circle cx="189.619" cy="24.8247" r="3.69731" fill="#769F9E"/>
<path d="M350.158 25.3529L146.836 35.56L157.425 151.061L362.336 132.796L350.158 25.3529Z" fill="#FBFBFB"/>
<path d="M170.469 68.3319L167.693 49.2427C167.27 46.3386 169.428 43.6968 172.358 43.5309L246.411 39.3392C248.959 39.195 251.206 40.9923 251.626 43.5092L254.731 62.1413C255.218 65.0652 253.07 67.7687 250.111 67.9536L175.729 72.6024C173.132 72.7648 170.844 70.9074 170.469 68.3319Z" fill="#F3F3F3"/>
<path d="M335.078 83.711L177.739 93.7968C175.799 93.9212 174.089 92.5321 173.814 90.6075C173.507 88.4587 175.096 86.5039 177.262 86.3651L334.602 76.2792C336.542 76.1548 338.251 77.5439 338.526 79.4685C338.833 81.6173 337.245 83.5721 335.078 83.711Z" fill="#F3F3F3"/>
<path d="M290.824 103.271L179.308 110.179C177.376 110.299 175.675 108.913 175.401 106.996C175.094 104.844 176.693 102.888 178.863 102.762L290.405 96.2888C292.013 96.1955 293.476 97.2124 293.95 98.7517C294.616 100.915 293.083 103.131 290.824 103.271Z" fill="#F3F3F3"/>
<path d="M176.79 123.285L176.7 122.681C176.263 119.77 178.423 117.114 181.362 116.947L255.352 112.759C257.916 112.614 260.173 114.435 260.573 116.971L260.596 117.114C261.055 120.024 258.911 122.699 255.971 122.884L182.049 127.533C179.459 127.696 177.175 125.851 176.79 123.285Z" fill="#F3F3F3"/>
<path d="M269.64 124.527L268.273 117.007C267.736 114.053 269.906 111.294 272.904 111.121L326.884 107.998C329.351 107.855 331.552 109.535 332.064 111.952L333.662 119.484C334.297 122.48 332.115 125.338 329.057 125.514L274.846 128.624C272.325 128.769 270.092 127.011 269.64 124.527Z" fill="#F3F3F3"/>
</g>
<path d="M193.786 75.3511L196.555 75.2232L197.569 81.3438L204.844 81.0077L203.829 74.8872L206.599 74.7592L209.144 90.1258L206.375 90.2537L205.253 83.482L197.979 83.8181L199.101 90.5897L196.332 90.7177L193.786 75.3511ZM210.698 79.5563L213.335 79.4344L215.061 89.8524L212.424 89.9743L210.698 79.5563ZM209.738 76.0358C209.668 75.6162 209.762 75.2473 210.019 74.9292C210.289 74.596 210.666 74.4182 211.149 74.3959C211.633 74.3736 212.061 74.5069 212.433 74.7959C212.818 75.0697 213.048 75.4309 213.122 75.8794C213.196 76.328 213.09 76.712 212.804 77.0314C212.529 77.3357 212.15 77.499 211.667 77.5213C211.183 77.5436 210.755 77.4103 210.383 77.1214C210.022 76.8172 209.807 76.4554 209.738 76.0358ZM218.471 86.6768L221.152 86.5529L220.234 92.3691L217.882 92.4777L218.471 86.6768ZM228.724 73.7371L231.493 73.6091L234.039 88.9757L231.27 89.1036L228.724 73.7371ZM235.851 73.4078L238.533 73.2839L237.614 79.1001L235.262 79.2087L235.851 73.4078ZM241.877 78.1158L244.383 78.0001L244.652 79.6279L244.696 79.6258C244.849 79.1231 245.151 78.6717 245.601 78.2718C246.064 77.8568 246.735 77.629 247.614 77.5883C249.27 77.5119 250.475 78.105 251.231 79.3677C251.501 78.6845 251.897 78.1778 252.418 77.8475C252.937 77.5028 253.592 77.3122 254.383 77.2756C255.086 77.2431 255.699 77.3315 256.221 77.5407C256.742 77.7498 257.183 78.0502 257.544 78.4418C257.918 78.8328 258.217 79.3001 258.44 79.8438C258.661 80.3731 258.823 80.9489 258.926 81.571L259.954 87.7784L257.317 87.9003L256.339 81.9967C256.286 81.6784 256.206 81.3759 256.1 81.0892C255.991 80.7881 255.845 80.5324 255.663 80.3221C255.478 80.0973 255.25 79.9256 254.979 79.8069C254.709 79.6882 254.376 79.638 253.98 79.6562C253.57 79.6752 253.231 79.771 252.965 79.9437C252.71 80.1013 252.51 80.3147 252.362 80.5839C252.227 80.838 252.143 81.1335 252.111 81.4704C252.09 81.7921 252.107 82.1193 252.162 82.4521L253.097 88.0952L250.46 88.217L249.432 82.0096C249.324 81.3585 249.1 80.8513 248.759 80.4879C248.416 80.1101 247.922 79.9361 247.277 79.9659C246.838 79.9862 246.476 80.0758 246.192 80.2347C245.923 80.3929 245.707 80.5998 245.542 80.8552C245.393 81.11 245.3 81.3986 245.265 81.721C245.23 82.0434 245.241 82.3782 245.299 82.7255L246.241 88.412L243.604 88.5338L241.877 78.1158ZM276.501 82.7274C276.602 83.3351 276.596 83.9259 276.485 84.4996C276.388 85.0727 276.178 85.5855 275.854 86.0378C275.542 86.475 275.114 86.8302 274.569 87.1032C274.026 87.3908 273.366 87.5525 272.59 87.5883C271.359 87.6452 270.301 87.4097 269.417 86.882C268.547 86.3535 267.885 85.4801 267.432 84.2617L269.925 83.5342C270.097 84.0366 270.369 84.4323 270.742 84.7212C271.129 85.0095 271.564 85.1425 272.048 85.1202C272.839 85.0836 273.331 84.7984 273.523 84.2647C273.727 83.7158 273.753 82.9783 273.599 82.0523L271.891 71.7428L274.66 71.6149L276.501 82.7274ZM278.936 81.6526C278.8 80.8279 278.823 80.0759 279.005 79.3968C279.2 78.7025 279.515 78.1048 279.948 77.6036C280.382 77.1024 280.929 76.7054 281.589 76.4124C282.249 76.1195 282.975 75.9547 283.766 75.9182C284.557 75.8816 285.326 75.9773 286.072 76.2053C286.819 76.4333 287.488 76.7741 288.08 77.2279C288.672 77.6817 289.17 78.2419 289.576 78.9084C289.994 79.5598 290.271 80.2979 290.408 81.1226C290.545 81.9474 290.515 82.7069 290.32 83.4012C290.138 84.0803 289.83 84.6705 289.396 85.1716C288.962 85.6728 288.415 86.0699 287.755 86.3628C287.095 86.6558 286.369 86.8205 285.578 86.8571C284.787 86.8936 284.018 86.7979 283.272 86.5699C282.526 86.342 281.856 86.0011 281.265 85.5473C280.673 85.0935 280.168 84.5409 279.75 83.8895C279.344 83.223 279.073 82.4774 278.936 81.6526ZM281.573 81.5308C281.641 81.9359 281.771 82.3235 281.965 82.6937C282.174 83.0631 282.434 83.3864 282.746 83.6636C283.072 83.9401 283.44 84.1564 283.85 84.3125C284.26 84.4685 284.706 84.5353 285.19 84.513C285.673 84.4907 286.091 84.3839 286.443 84.1927C286.796 84.0014 287.08 83.755 287.295 83.4535C287.526 83.1512 287.676 82.8089 287.745 82.4266C287.829 82.0437 287.838 81.6496 287.771 81.2445C287.704 80.8393 287.566 80.452 287.357 80.0826C287.163 79.7125 286.902 79.3892 286.576 79.1126C286.264 78.8354 285.904 78.6188 285.494 78.4628C285.084 78.3067 284.638 78.2399 284.154 78.2622C283.671 78.2846 283.253 78.3913 282.901 78.5826C282.549 78.7738 282.257 79.0205 282.027 79.3228C281.811 79.6244 281.661 79.9666 281.577 80.3496C281.508 80.7319 281.506 81.1256 281.573 81.5308ZM294.695 75.6757L296.526 86.7231C296.633 87.3742 296.689 87.9767 296.692 88.5306C296.698 89.099 296.602 89.5919 296.406 90.0092C296.226 90.4403 295.921 90.7824 295.491 91.0356C295.06 91.2888 294.471 91.4326 293.724 91.4672C293.475 91.4787 293.231 91.4754 292.992 91.4572C292.752 91.4391 292.51 91.3993 292.263 91.3378L292.087 89.0714C292.238 89.0936 292.381 89.1089 292.515 89.1173C292.652 89.1401 292.794 89.1481 292.94 89.1414C293.262 89.1265 293.5 89.0426 293.651 88.8898C293.82 88.7508 293.923 88.5711 293.961 88.3506C294.013 88.1295 294.024 87.8884 293.996 87.6273C293.967 87.3662 293.933 87.1126 293.892 86.8666L292.058 75.7975L294.695 75.6757ZM291.098 72.277C291.029 71.8574 291.123 71.4886 291.38 71.1705C291.65 70.8373 292.026 70.6595 292.51 70.6372C292.993 70.6148 293.421 70.7481 293.794 71.0371C294.179 71.3109 294.408 71.6721 294.483 72.1207C294.557 72.5692 294.451 72.9532 294.164 73.2726C293.89 73.5769 293.511 73.7402 293.027 73.7626C292.544 73.7849 292.116 73.6516 291.743 73.3626C291.383 73.0585 291.168 72.6966 291.098 72.277ZM298.058 80.7692C297.922 79.9444 297.945 79.1925 298.128 78.5134C298.323 77.8191 298.637 77.2214 299.071 76.7202C299.504 76.219 300.051 75.8219 300.711 75.529C301.371 75.2361 302.097 75.0713 302.888 75.0348C303.679 74.9982 304.448 75.0939 305.194 75.3219C305.941 75.5498 306.61 75.8907 307.202 76.3445C307.794 76.7983 308.293 77.3585 308.698 78.025C309.116 78.6764 309.394 79.4145 309.53 80.2392C309.667 81.064 309.638 81.8235 309.443 82.5178C309.26 83.1969 308.952 83.787 308.518 84.2882C308.084 84.7894 307.537 85.1865 306.877 85.4794C306.217 85.7723 305.492 85.9371 304.7 85.9736C303.909 86.0102 303.141 85.9145 302.394 85.6865C301.648 85.4586 300.979 85.1177 300.387 84.6639C299.795 84.2101 299.29 83.6575 298.872 83.0061C298.466 82.3396 298.195 81.5939 298.058 80.7692ZM300.696 80.6474C300.763 81.0525 300.893 81.4401 301.088 81.8102C301.296 82.1797 301.557 82.503 301.868 82.7802C302.195 83.0567 302.563 83.273 302.972 83.429C303.382 83.5851 303.829 83.6519 304.312 83.6296C304.796 83.6073 305.213 83.5005 305.566 83.3092C305.918 83.118 306.202 82.8716 306.417 82.57C306.648 82.2678 306.798 81.9255 306.867 81.5432C306.952 81.1602 306.96 80.7662 306.893 80.361C306.826 79.9559 306.688 79.5686 306.479 79.1992C306.285 78.8291 306.025 78.5057 305.698 78.2292C305.387 77.952 305.026 77.7354 304.616 77.5794C304.207 77.4233 303.76 77.3565 303.276 77.3788C302.793 77.4011 302.375 77.5079 302.023 77.6992C301.671 77.8904 301.38 78.1371 301.149 78.4394C300.933 78.7409 300.783 79.0832 300.699 79.4662C300.63 79.8485 300.628 80.2422 300.696 80.6474ZM315.141 80.3737L312.504 80.4955L310.756 69.9473L313.393 69.8255L315.141 80.3737ZM312.611 83.8148C312.534 83.3518 312.636 82.9461 312.918 82.5978C313.215 82.2487 313.605 82.063 314.088 82.0407C314.557 82.019 314.994 82.1592 315.398 82.4613C315.802 82.7634 316.043 83.146 316.12 83.609C316.196 84.072 316.086 84.478 315.79 84.8271C315.508 85.1754 315.126 85.3608 314.642 85.3831C314.408 85.394 314.173 85.361 313.939 85.2844C313.72 85.207 313.517 85.0997 313.332 84.9625C313.147 84.8252 312.986 84.6577 312.85 84.4599C312.729 84.2614 312.649 84.0464 312.611 83.8148Z" fill="#B7B7B7"/>
<path d="M282.873 214.758L280.077 208.236C279.538 206.977 280.395 205.56 281.76 205.454L315.936 202.789C316.67 202.732 317.376 203.083 317.774 203.703L321.801 209.976C322.615 211.246 321.785 212.926 320.282 213.05L284.875 215.964C284.018 216.034 283.212 215.549 282.873 214.758Z" fill="#EBEBEB" stroke="#F3F3F3"/>
<path d="M145.433 178.48V169.184L166.627 226.766V238.59C165.806 238.59 165.479 238.763 163.695 238.168C161.91 237.573 150.886 200.046 145.433 178.48Z" fill="#D7D7D7"/>
<defs>
<linearGradient id="paint0_linear" x1="258.811" y1="98.7709" x2="192.26" y2="317.968" gradientUnits="userSpaceOnUse">
<stop stop-color="#D2D2D2"/>
<stop offset="1" stop-color="white" stop-opacity="0"/>
</linearGradient>
</defs>
</svg>
